<?xml version="1.0" encoding="UTF-8" standalone="no"?>
<!DOCTYPE svg PUBLIC "-//W3C//DTD SVG 1.1//EN" "http://www.w3.org/Graphics/SVG/1.1/DTD/svg11.dtd">
<svg width="5000" height="240" viewBox="0 0 5000 240" version="1.1" xmlns="http://www.w3.org/2000/svg" xmlns:xlink="http://www.w3.org/1999/xlink" xml:space="preserve" xmlns:serif="http://www.serif.com/" style="fill-rule:evenodd;clip-rule:evenodd;stroke-linecap:round;stroke-linejoin:round;stroke-miterlimit:1.5;">
    <g>
        <g transform="matrix(-1,0,0,-1,1080,240)">
            <circle cx="59.5" cy="146.5" r="21.5" style="fill:white;"/>
        </g>
        <g transform="matrix(-1,0,0,-1,1080,240)">
            <circle cx="29" cy="133" r="6" style="fill:white;"/>
        </g>
        <g transform="matrix(-1,0,0,-1,1080,240)">
            <circle cx="142" cy="160" r="12" style="fill:white;"/>
        </g>
        <g transform="matrix(-1,0,0,-1,1080,240)">
            <circle cx="214" cy="133" r="14" style="fill:white;"/>
        </g>
        <g transform="matrix(-1,0,0,-1,1080,240)">
            <circle cx="200.5" cy="114.5" r="3.5" style="fill:white;"/>
        </g>
        <g transform="matrix(-1,0,0,-1,1080,240)">
            <circle cx="365" cy="126" r="12" style="fill:white;"/>
        </g>
        <g transform="matrix(-1,0,0,-1,1080,240)">
            <circle cx="133.5" cy="137.5" r="6.5" style="fill:white;"/>
        </g>
        <g transform="matrix(-1,0,0,-1,1080,240)">
            <circle cx="233.5" cy="151.5" r="3.5" style="fill:white;"/>
        </g>
        <g transform="matrix(-1,0,0,-1,1080,240)">
            <circle cx="381" cy="120" r="3" style="fill:white;"/>
        </g>
        <g transform="matrix(-1,0,0,-1,1080,240)">
            <circle cx="608" cy="130" r="7" style="fill:white;"/>
        </g>
        <g transform="matrix(-1,0,0,-1,1080,240)">
            <circle cx="386.5" cy="156.5" r="16.5" style="fill:white;"/>
        </g>
        <g transform="matrix(-1,0,0,-1,1080,240)">
            <circle cx="356.5" cy="145.5" r="6.5" style="fill:white;"/>
        </g>
        <g transform="matrix(-1,0,0,-1,1093,221)">
            <circle cx="478.5" cy="110.5" r="15.5" style="fill:white;"/>
        </g>
        <g transform="matrix(-1,0,0,-1,1093,221)">
            <circle cx="506" cy="99" r="6" style="fill:white;"/>
        </g>
        <g transform="matrix(-1,0,0,-1,1093,221)">
            <circle cx="454" cy="100" r="3" style="fill:white;"/>
        </g>
        <g transform="matrix(-1,0,0,-1,1080,240)">
            <circle cx="631" cy="159" r="25" style="fill:white;"/>
        </g>
        <g transform="matrix(-1,0,0,-1,1080,240)">
            <circle cx="673.5" cy="149.5" r="8.5" style="fill:white;"/>
        </g>
        <g transform="matrix(-1,0,0,-1,1080,240)">
            <circle cx="575.5" cy="135.5" r="4.5" style="fill:white;"/>
        </g>
        <g transform="matrix(-1,0,0,-1,1080,240)">
            <circle cx="877.5" cy="172.5" r="12.5" style="fill:white;"/>
        </g>
        <g transform="matrix(-1,0,0,-1,1080,240)">
            <circle cx="837" cy="145" r="13" style="fill:white;"/>
        </g>
        <g transform="matrix(-1,0,0,-1,1080,240)">
            <circle cx="864" cy="147" r="5" style="fill:white;"/>
        </g>
        <g transform="matrix(-1,0,0,-1,1080,240)">
            <circle cx="982.5" cy="144.5" r="19.5" style="fill:white;"/>
        </g>
        <g transform="matrix(-1,0,0,-1,1080,240)">
            <circle cx="1013.5" cy="119.5" r="7.5" style="fill:white;"/>
        </g>
        <g transform="matrix(-1,0,0,-1,1080,240)">
            <circle cx="988.5" cy="111.5" r="5.5" style="fill:white;"/>
        </g>
        <g transform="matrix(-1,0,0,-1,1080,240)">
            <ellipse cx="76" cy="120.5" rx="3" ry="3.5" style="fill:white;stroke:white;stroke-width:2px;"/>
        </g>
        <g transform="matrix(-1,0,0,-1,1080,240)">
            <circle cx="36" cy="163" r="3" style="fill:white;stroke:white;stroke-width:2px;"/>
        </g>
        <g transform="matrix(-1,0,0,-1,1080,240)">
            <circle cx="144" cy="145" r="3" style="fill:white;stroke:white;stroke-width:2px;"/>
        </g>
        <g transform="matrix(-1,0,0,-1,1080,240)">
            <circle cx="83.5" cy="154.5" r="10.5" style="fill:white;stroke:white;stroke-width:2px;"/>
        </g>
        <g transform="matrix(-1,0,0,-1,1080,240)">
            <circle cx="229.5" cy="118.5" r="3.5" style="fill:white;stroke:white;stroke-width:2px;"/>
        </g>
        <g transform="matrix(-1,0,0,-1,1080,240)">
            <circle cx="402.5" cy="145.5" r="8.5" style="fill:white;stroke:white;stroke-width:2px;"/>
        </g>
        <g transform="matrix(-1,0,0,-1,1093,221)">
            <circle cx="474" cy="91" r="3" style="fill:white;stroke:white;stroke-width:2px;"/>
        </g>
        <g transform="matrix(-1,0,0,-1,1080,240)">
            <circle cx="598.5" cy="162.5" r="9.5" style="fill:white;stroke:white;stroke-width:2px;"/>
        </g>
        <g transform="matrix(-1,0,0,-1,1080,240)">
            <circle cx="821.5" cy="147.5" r="6.5" style="fill:white;stroke:white;stroke-width:2px;"/>
        </g>
        <g transform="matrix(-1,0,0,-1,1080,240)">
            <circle cx="837.5" cy="124.5" r="3.5" style="fill:white;stroke:white;stroke-width:2px;"/>
        </g>
        <g transform="matrix(-1,0,0,-1,1080,240)">
            <circle cx="955.5" cy="138.5" r="3.5" style="fill:white;stroke:white;stroke-width:2px;"/>
        </g>
        <g transform="matrix(-1,0,0,-1,1080,240)">
            <circle cx="985.5" cy="169.5" r="3.5" style="fill:white;stroke:white;stroke-width:2px;"/>
        </g>
        <g transform="matrix(-1,0,0,-1,1080,240)">
            <circle cx="518" cy="178" r="14" style="fill:white;stroke:white;stroke-width:2px;"/>
        </g>
        <g transform="matrix(-1,0,0,-1,1080,240)">
            <circle cx="497" cy="164" r="8" style="fill:white;stroke:white;stroke-width:2px;"/>
        </g>
        <g transform="matrix(-1,0,0,-1,1080,240)">
            <circle cx="487" cy="191" r="5" style="fill:white;stroke:white;stroke-width:2px;"/>
        </g>
        <g transform="matrix(-1,0,0,-1,1080,240)">
            <circle cx="648.5" cy="132.5" r="3.5" style="fill:white;stroke:white;stroke-width:2px;"/>
        </g>
        <g transform="matrix(-1,0,0,-1,1054,263)">
            <circle cx="254" cy="184" r="18" style="fill:white;stroke:white;stroke-width:2px;"/>
        </g>
        <g transform="matrix(-1,0,0,-1,1054,263)">
            <circle cx="290.5" cy="177.5" r="7.5" style="fill:white;stroke:white;stroke-width:2px;"/>
        </g>
        <g transform="matrix(-1,0,0,-1,1054,263)">
            <circle cx="275" cy="165" r="4" style="fill:white;stroke:white;stroke-width:2px;"/>
        </g>
        <g transform="matrix(-1,0,0,-1,1054,263)">
            <circle cx="226" cy="176" r="3" style="fill:white;stroke:white;stroke-width:2px;"/>
        </g>
        <g transform="matrix(-1,0,0,-1,1080,240)">
            <circle cx="747" cy="163" r="18" style="fill:white;stroke:white;stroke-width:2px;"/>
        </g>
        <g transform="matrix(-1,0,0,-1,1080,240)">
            <circle cx="720.5" cy="166.5" r="10.5" style="fill:white;stroke:white;stroke-width:2px;"/>
        </g>
        <g transform="matrix(-1,0,0,-1,1080,240)">
            <circle cx="728.5" cy="142.5" r="3.5" style="fill:white;stroke:white;stroke-width:2px;"/>
        </g>
        <g transform="matrix(-1,0,0,-1,1080,240)">
            <circle cx="757.5" cy="185.5" r="4.5" style="fill:white;stroke:white;stroke-width:2px;"/>
        </g>
        <g transform="matrix(-1,0,0,-1,1080,240)">
            <circle cx="787" cy="124" r="9" style="fill:white;stroke:white;stroke-width:2px;"/>
        </g>
    </g>
    <g transform="matrix(1,0,0,1,1024,0)">
        <g transform="matrix(-1,0,0,-1,1080,240)">
            <circle cx="59.5" cy="146.5" r="21.5" style="fill:white;"/>
        </g>
        <g transform="matrix(-1,0,0,-1,1080,240)">
            <circle cx="29" cy="133" r="6" style="fill:white;"/>
        </g>
        <g transform="matrix(-1,0,0,-1,1080,240)">
            <circle cx="142" cy="160" r="12" style="fill:white;"/>
        </g>
        <g transform="matrix(-1,0,0,-1,1080,240)">
            <circle cx="214" cy="133" r="14" style="fill:white;"/>
        </g>
        <g transform="matrix(-1,0,0,-1,1080,240)">
            <circle cx="200.5" cy="114.5" r="3.5" style="fill:white;"/>
        </g>
        <g transform="matrix(-1,0,0,-1,1080,240)">
            <circle cx="365" cy="126" r="12" style="fill:white;"/>
        </g>
        <g transform="matrix(-1,0,0,-1,1080,240)">
            <circle cx="133.5" cy="137.5" r="6.5" style="fill:white;"/>
        </g>
        <g transform="matrix(-1,0,0,-1,1080,240)">
            <circle cx="233.5" cy="151.5" r="3.5" style="fill:white;"/>
        </g>
        <g transform="matrix(-1,0,0,-1,1080,240)">
            <circle cx="381" cy="120" r="3" style="fill:white;"/>
        </g>
        <g transform="matrix(-1,0,0,-1,1080,240)">
            <circle cx="608" cy="130" r="7" style="fill:white;"/>
        </g>
        <g transform="matrix(-1,0,0,-1,1080,240)">
            <circle cx="386.5" cy="156.5" r="16.5" style="fill:white;"/>
        </g>
        <g transform="matrix(-1,0,0,-1,1080,240)">
            <circle cx="356.5" cy="145.5" r="6.5" style="fill:white;"/>
        </g>
        <g transform="matrix(-1,0,0,-1,1093,221)">
            <circle cx="478.5" cy="110.5" r="15.5" style="fill:white;"/>
        </g>
        <g transform="matrix(-1,0,0,-1,1093,221)">
            <circle cx="506" cy="99" r="6" style="fill:white;"/>
        </g>
        <g transform="matrix(-1,0,0,-1,1093,221)">
            <circle cx="454" cy="100" r="3" style="fill:white;"/>
        </g>
        <g transform="matrix(-1,0,0,-1,1080,240)">
            <circle cx="631" cy="159" r="25" style="fill:white;"/>
        </g>
        <g transform="matrix(-1,0,0,-1,1080,240)">
            <circle cx="673.5" cy="149.5" r="8.5" style="fill:white;"/>
        </g>
        <g transform="matrix(-1,0,0,-1,1080,240)">
            <circle cx="575.5" cy="135.5" r="4.5" style="fill:white;"/>
        </g>
        <g transform="matrix(-1,0,0,-1,1080,240)">
            <circle cx="877.5" cy="172.5" r="12.5" style="fill:white;"/>
        </g>
        <g transform="matrix(-1,0,0,-1,1080,240)">
            <circle cx="837" cy="145" r="13" style="fill:white;"/>
        </g>
        <g transform="matrix(-1,0,0,-1,1080,240)">
            <circle cx="864" cy="147" r="5" style="fill:white;"/>
        </g>
        <g transform="matrix(-1,0,0,-1,1080,240)">
            <circle cx="982.5" cy="144.5" r="19.5" style="fill:white;"/>
        </g>
        <g transform="matrix(-1,0,0,-1,1080,240)">
            <circle cx="1013.5" cy="119.5" r="7.5" style="fill:white;"/>
        </g>
        <g transform="matrix(-1,0,0,-1,1080,240)">
            <circle cx="988.5" cy="111.5" r="5.5" style="fill:white;"/>
        </g>
        <g transform="matrix(-1,0,0,-1,1080,240)">
            <ellipse cx="76" cy="120.5" rx="3" ry="3.5" style="fill:white;stroke:white;stroke-width:2px;"/>
        </g>
        <g transform="matrix(-1,0,0,-1,1080,240)">
            <circle cx="36" cy="163" r="3" style="fill:white;stroke:white;stroke-width:2px;"/>
        </g>
        <g transform="matrix(-1,0,0,-1,1080,240)">
            <circle cx="144" cy="145" r="3" style="fill:white;stroke:white;stroke-width:2px;"/>
        </g>
        <g transform="matrix(-1,0,0,-1,1080,240)">
            <circle cx="83.5" cy="154.5" r="10.5" style="fill:white;stroke:white;stroke-width:2px;"/>
        </g>
        <g transform="matrix(-1,0,0,-1,1080,240)">
            <circle cx="229.5" cy="118.5" r="3.5" style="fill:white;stroke:white;stroke-width:2px;"/>
        </g>
        <g transform="matrix(-1,0,0,-1,1080,240)">
            <circle cx="402.5" cy="145.5" r="8.5" style="fill:white;stroke:white;stroke-width:2px;"/>
        </g>
        <g transform="matrix(-1,0,0,-1,1093,221)">
            <circle cx="474" cy="91" r="3" style="fill:white;stroke:white;stroke-width:2px;"/>
        </g>
        <g transform="matrix(-1,0,0,-1,1080,240)">
            <circle cx="598.5" cy="162.5" r="9.5" style="fill:white;stroke:white;stroke-width:2px;"/>
        </g>
        <g transform="matrix(-1,0,0,-1,1080,240)">
            <circle cx="821.5" cy="147.5" r="6.5" style="fill:white;stroke:white;stroke-width:2px;"/>
        </g>
        <g transform="matrix(-1,0,0,-1,1080,240)">
            <circle cx="837.5" cy="124.5" r="3.5" style="fill:white;stroke:white;stroke-width:2px;"/>
        </g>
        <g transform="matrix(-1,0,0,-1,1080,240)">
            <circle cx="955.5" cy="138.5" r="3.5" style="fill:white;stroke:white;stroke-width:2px;"/>
        </g>
        <g transform="matrix(-1,0,0,-1,1080,240)">
            <circle cx="985.5" cy="169.5" r="3.5" style="fill:white;stroke:white;stroke-width:2px;"/>
        </g>
        <g transform="matrix(-1,0,0,-1,1080,240)">
            <circle cx="518" cy="178" r="14" style="fill:white;stroke:white;stroke-width:2px;"/>
        </g>
        <g transform="matrix(-1,0,0,-1,1080,240)">
            <circle cx="497" cy="164" r="8" style="fill:white;stroke:white;stroke-width:2px;"/>
        </g>
        <g transform="matrix(-1,0,0,-1,1080,240)">
            <circle cx="487" cy="191" r="5" style="fill:white;stroke:white;stroke-width:2px;"/>
        </g>
        <g transform="matrix(-1,0,0,-1,1080,240)">
            <circle cx="648.5" cy="132.5" r="3.5" style="fill:white;stroke:white;stroke-width:2px;"/>
        </g>
        <g transform="matrix(-1,0,0,-1,1054,263)">
            <circle cx="254" cy="184" r="18" style="fill:white;stroke:white;stroke-width:2px;"/>
        </g>
        <g transform="matrix(-1,0,0,-1,1054,263)">
            <circle cx="290.5" cy="177.5" r="7.5" style="fill:white;stroke:white;stroke-width:2px;"/>
        </g>
        <g transform="matrix(-1,0,0,-1,1054,263)">
            <circle cx="275" cy="165" r="4" style="fill:white;stroke:white;stroke-width:2px;"/>
        </g>
        <g transform="matrix(-1,0,0,-1,1054,263)">
            <circle cx="226" cy="176" r="3" style="fill:white;stroke:white;stroke-width:2px;"/>
        </g>
        <g transform="matrix(-1,0,0,-1,1080,240)">
            <circle cx="747" cy="163" r="18" style="fill:white;stroke:white;stroke-width:2px;"/>
        </g>
        <g transform="matrix(-1,0,0,-1,1080,240)">
            <circle cx="720.5" cy="166.5" r="10.5" style="fill:white;stroke:white;stroke-width:2px;"/>
        </g>
        <g transform="matrix(-1,0,0,-1,1080,240)">
            <circle cx="728.5" cy="142.5" r="3.5" style="fill:white;stroke:white;stroke-width:2px;"/>
        </g>
        <g transform="matrix(-1,0,0,-1,1080,240)">
            <circle cx="757.5" cy="185.5" r="4.5" style="fill:white;stroke:white;stroke-width:2px;"/>
        </g>
        <g transform="matrix(-1,0,0,-1,1080,240)">
            <circle cx="787" cy="124" r="9" style="fill:white;stroke:white;stroke-width:2px;"/>
        </g>
    </g>
    <g transform="matrix(1,0,0,1,2042,0)">
        <g transform="matrix(-1,0,0,-1,1080,240)">
            <circle cx="59.5" cy="146.5" r="21.5" style="fill:white;"/>
        </g>
        <g transform="matrix(-1,0,0,-1,1080,240)">
            <circle cx="29" cy="133" r="6" style="fill:white;"/>
        </g>
        <g transform="matrix(-1,0,0,-1,1080,240)">
            <circle cx="142" cy="160" r="12" style="fill:white;"/>
        </g>
        <g transform="matrix(-1,0,0,-1,1080,240)">
            <circle cx="214" cy="133" r="14" style="fill:white;"/>
        </g>
        <g transform="matrix(-1,0,0,-1,1080,240)">
            <circle cx="200.5" cy="114.5" r="3.5" style="fill:white;"/>
        </g>
        <g transform="matrix(-1,0,0,-1,1080,240)">
            <circle cx="365" cy="126" r="12" style="fill:white;"/>
        </g>
        <g transform="matrix(-1,0,0,-1,1080,240)">
            <circle cx="133.5" cy="137.5" r="6.5" style="fill:white;"/>
        </g>
        <g transform="matrix(-1,0,0,-1,1080,240)">
            <circle cx="233.5" cy="151.5" r="3.5" style="fill:white;"/>
        </g>
        <g transform="matrix(-1,0,0,-1,1080,240)">
            <circle cx="381" cy="120" r="3" style="fill:white;"/>
        </g>
        <g transform="matrix(-1,0,0,-1,1080,240)">
            <circle cx="608" cy="130" r="7" style="fill:white;"/>
        </g>
        <g transform="matrix(-1,0,0,-1,1080,240)">
            <circle cx="386.5" cy="156.5" r="16.5" style="fill:white;"/>
        </g>
        <g transform="matrix(-1,0,0,-1,1080,240)">
            <circle cx="356.5" cy="145.5" r="6.5" style="fill:white;"/>
        </g>
        <g transform="matrix(-1,0,0,-1,1093,221)">
            <circle cx="478.5" cy="110.5" r="15.5" style="fill:white;"/>
        </g>
        <g transform="matrix(-1,0,0,-1,1093,221)">
            <circle cx="506" cy="99" r="6" style="fill:white;"/>
        </g>
        <g transform="matrix(-1,0,0,-1,1093,221)">
            <circle cx="454" cy="100" r="3" style="fill:white;"/>
        </g>
        <g transform="matrix(-1,0,0,-1,1080,240)">
            <circle cx="631" cy="159" r="25" style="fill:white;"/>
        </g>
        <g transform="matrix(-1,0,0,-1,1080,240)">
            <circle cx="673.5" cy="149.5" r="8.5" style="fill:white;"/>
        </g>
        <g transform="matrix(-1,0,0,-1,1080,240)">
            <circle cx="575.5" cy="135.5" r="4.5" style="fill:white;"/>
        </g>
        <g transform="matrix(-1,0,0,-1,1080,240)">
            <circle cx="877.5" cy="172.5" r="12.5" style="fill:white;"/>
        </g>
        <g transform="matrix(-1,0,0,-1,1080,240)">
            <circle cx="837" cy="145" r="13" style="fill:white;"/>
        </g>
        <g transform="matrix(-1,0,0,-1,1080,240)">
            <circle cx="864" cy="147" r="5" style="fill:white;"/>
        </g>
        <g transform="matrix(-1,0,0,-1,1080,240)">
            <circle cx="982.5" cy="144.5" r="19.5" style="fill:white;"/>
        </g>
        <g transform="matrix(-1,0,0,-1,1080,240)">
            <circle cx="1013.5" cy="119.5" r="7.5" style="fill:white;"/>
        </g>
        <g transform="matrix(-1,0,0,-1,1080,240)">
            <circle cx="988.5" cy="111.5" r="5.5" style="fill:white;"/>
        </g>
        <g transform="matrix(-1,0,0,-1,1080,240)">
            <ellipse cx="76" cy="120.5" rx="3" ry="3.5" style="fill:white;stroke:white;stroke-width:2px;"/>
        </g>
        <g transform="matrix(-1,0,0,-1,1080,240)">
            <circle cx="36" cy="163" r="3" style="fill:white;stroke:white;stroke-width:2px;"/>
        </g>
        <g transform="matrix(-1,0,0,-1,1080,240)">
            <circle cx="144" cy="145" r="3" style="fill:white;stroke:white;stroke-width:2px;"/>
        </g>
        <g transform="matrix(-1,0,0,-1,1080,240)">
            <circle cx="83.5" cy="154.5" r="10.5" style="fill:white;stroke:white;stroke-width:2px;"/>
        </g>
        <g transform="matrix(-1,0,0,-1,1080,240)">
            <circle cx="229.5" cy="118.5" r="3.5" style="fill:white;stroke:white;stroke-width:2px;"/>
        </g>
        <g transform="matrix(-1,0,0,-1,1080,240)">
            <circle cx="402.5" cy="145.5" r="8.5" style="fill:white;stroke:white;stroke-width:2px;"/>
        </g>
        <g transform="matrix(-1,0,0,-1,1093,221)">
            <circle cx="474" cy="91" r="3" style="fill:white;stroke:white;stroke-width:2px;"/>
        </g>
        <g transform="matrix(-1,0,0,-1,1080,240)">
            <circle cx="598.5" cy="162.5" r="9.5" style="fill:white;stroke:white;stroke-width:2px;"/>
        </g>
        <g transform="matrix(-1,0,0,-1,1080,240)">
            <circle cx="821.5" cy="147.5" r="6.5" style="fill:white;stroke:white;stroke-width:2px;"/>
        </g>
        <g transform="matrix(-1,0,0,-1,1080,240)">
            <circle cx="837.5" cy="124.5" r="3.5" style="fill:white;stroke:white;stroke-width:2px;"/>
        </g>
        <g transform="matrix(-1,0,0,-1,1080,240)">
            <circle cx="955.5" cy="138.5" r="3.5" style="fill:white;stroke:white;stroke-width:2px;"/>
        </g>
        <g transform="matrix(-1,0,0,-1,1080,240)">
            <circle cx="985.5" cy="169.5" r="3.5" style="fill:white;stroke:white;stroke-width:2px;"/>
        </g>
        <g transform="matrix(-1,0,0,-1,1080,240)">
            <circle cx="518" cy="178" r="14" style="fill:white;stroke:white;stroke-width:2px;"/>
        </g>
        <g transform="matrix(-1,0,0,-1,1080,240)">
            <circle cx="497" cy="164" r="8" style="fill:white;stroke:white;stroke-width:2px;"/>
        </g>
        <g transform="matrix(-1,0,0,-1,1080,240)">
            <circle cx="487" cy="191" r="5" style="fill:white;stroke:white;stroke-width:2px;"/>
        </g>
        <g transform="matrix(-1,0,0,-1,1080,240)">
            <circle cx="648.5" cy="132.5" r="3.5" style="fill:white;stroke:white;stroke-width:2px;"/>
        </g>
        <g transform="matrix(-1,0,0,-1,1054,263)">
            <circle cx="254" cy="184" r="18" style="fill:white;stroke:white;stroke-width:2px;"/>
        </g>
        <g transform="matrix(-1,0,0,-1,1054,263)">
            <circle cx="290.5" cy="177.5" r="7.5" style="fill:white;stroke:white;stroke-width:2px;"/>
        </g>
        <g transform="matrix(-1,0,0,-1,1054,263)">
            <circle cx="275" cy="165" r="4" style="fill:white;stroke:white;stroke-width:2px;"/>
        </g>
        <g transform="matrix(-1,0,0,-1,1054,263)">
            <circle cx="226" cy="176" r="3" style="fill:white;stroke:white;stroke-width:2px;"/>
        </g>
        <g transform="matrix(-1,0,0,-1,1080,240)">
            <circle cx="747" cy="163" r="18" style="fill:white;stroke:white;stroke-width:2px;"/>
        </g>
        <g transform="matrix(-1,0,0,-1,1080,240)">
            <circle cx="720.5" cy="166.5" r="10.5" style="fill:white;stroke:white;stroke-width:2px;"/>
        </g>
        <g transform="matrix(-1,0,0,-1,1080,240)">
            <circle cx="728.5" cy="142.5" r="3.5" style="fill:white;stroke:white;stroke-width:2px;"/>
        </g>
        <g transform="matrix(-1,0,0,-1,1080,240)">
            <circle cx="757.5" cy="185.5" r="4.5" style="fill:white;stroke:white;stroke-width:2px;"/>
        </g>
        <g transform="matrix(-1,0,0,-1,1080,240)">
            <circle cx="787" cy="124" r="9" style="fill:white;stroke:white;stroke-width:2px;"/>
        </g>
    </g>
    <g transform="matrix(1,0,0,1,3066,0)">
        <g transform="matrix(-1,0,0,-1,1080,240)">
            <circle cx="59.5" cy="146.5" r="21.5" style="fill:white;"/>
        </g>
        <g transform="matrix(-1,0,0,-1,1080,240)">
            <circle cx="29" cy="133" r="6" style="fill:white;"/>
        </g>
        <g transform="matrix(-1,0,0,-1,1080,240)">
            <circle cx="142" cy="160" r="12" style="fill:white;"/>
        </g>
        <g transform="matrix(-1,0,0,-1,1080,240)">
            <circle cx="214" cy="133" r="14" style="fill:white;"/>
        </g>
        <g transform="matrix(-1,0,0,-1,1080,240)">
            <circle cx="200.5" cy="114.5" r="3.5" style="fill:white;"/>
        </g>
        <g transform="matrix(-1,0,0,-1,1080,240)">
            <circle cx="365" cy="126" r="12" style="fill:white;"/>
        </g>
        <g transform="matrix(-1,0,0,-1,1080,240)">
            <circle cx="133.5" cy="137.5" r="6.5" style="fill:white;"/>
        </g>
        <g transform="matrix(-1,0,0,-1,1080,240)">
            <circle cx="233.5" cy="151.5" r="3.5" style="fill:white;"/>
        </g>
        <g transform="matrix(-1,0,0,-1,1080,240)">
            <circle cx="381" cy="120" r="3" style="fill:white;"/>
        </g>
        <g transform="matrix(-1,0,0,-1,1080,240)">
            <circle cx="608" cy="130" r="7" style="fill:white;"/>
        </g>
        <g transform="matrix(-1,0,0,-1,1080,240)">
            <circle cx="386.5" cy="156.5" r="16.5" style="fill:white;"/>
        </g>
        <g transform="matrix(-1,0,0,-1,1080,240)">
            <circle cx="356.5" cy="145.5" r="6.5" style="fill:white;"/>
        </g>
        <g transform="matrix(-1,0,0,-1,1093,221)">
            <circle cx="478.5" cy="110.5" r="15.5" style="fill:white;"/>
        </g>
        <g transform="matrix(-1,0,0,-1,1093,221)">
            <circle cx="506" cy="99" r="6" style="fill:white;"/>
        </g>
        <g transform="matrix(-1,0,0,-1,1093,221)">
            <circle cx="454" cy="100" r="3" style="fill:white;"/>
        </g>
        <g transform="matrix(-1,0,0,-1,1080,240)">
            <circle cx="631" cy="159" r="25" style="fill:white;"/>
        </g>
        <g transform="matrix(-1,0,0,-1,1080,240)">
            <circle cx="673.5" cy="149.5" r="8.5" style="fill:white;"/>
        </g>
        <g transform="matrix(-1,0,0,-1,1080,240)">
            <circle cx="575.5" cy="135.5" r="4.5" style="fill:white;"/>
        </g>
        <g transform="matrix(-1,0,0,-1,1080,240)">
            <circle cx="877.5" cy="172.5" r="12.5" style="fill:white;"/>
        </g>
        <g transform="matrix(-1,0,0,-1,1080,240)">
            <circle cx="837" cy="145" r="13" style="fill:white;"/>
        </g>
        <g transform="matrix(-1,0,0,-1,1080,240)">
            <circle cx="864" cy="147" r="5" style="fill:white;"/>
        </g>
        <g transform="matrix(-1,0,0,-1,1080,240)">
            <circle cx="982.5" cy="144.5" r="19.5" style="fill:white;"/>
        </g>
        <g transform="matrix(-1,0,0,-1,1080,240)">
            <circle cx="1013.5" cy="119.5" r="7.5" style="fill:white;"/>
        </g>
        <g transform="matrix(-1,0,0,-1,1080,240)">
            <circle cx="988.5" cy="111.5" r="5.5" style="fill:white;"/>
        </g>
        <g transform="matrix(-1,0,0,-1,1080,240)">
            <ellipse cx="76" cy="120.5" rx="3" ry="3.5" style="fill:white;stroke:white;stroke-width:2px;"/>
        </g>
        <g transform="matrix(-1,0,0,-1,1080,240)">
            <circle cx="36" cy="163" r="3" style="fill:white;stroke:white;stroke-width:2px;"/>
        </g>
        <g transform="matrix(-1,0,0,-1,1080,240)">
            <circle cx="144" cy="145" r="3" style="fill:white;stroke:white;stroke-width:2px;"/>
        </g>
        <g transform="matrix(-1,0,0,-1,1080,240)">
            <circle cx="83.5" cy="154.5" r="10.5" style="fill:white;stroke:white;stroke-width:2px;"/>
        </g>
        <g transform="matrix(-1,0,0,-1,1080,240)">
            <circle cx="229.5" cy="118.5" r="3.5" style="fill:white;stroke:white;stroke-width:2px;"/>
        </g>
        <g transform="matrix(-1,0,0,-1,1080,240)">
            <circle cx="402.5" cy="145.5" r="8.5" style="fill:white;stroke:white;stroke-width:2px;"/>
        </g>
        <g transform="matrix(-1,0,0,-1,1093,221)">
            <circle cx="474" cy="91" r="3" style="fill:white;stroke:white;stroke-width:2px;"/>
        </g>
        <g transform="matrix(-1,0,0,-1,1080,240)">
            <circle cx="598.5" cy="162.5" r="9.5" style="fill:white;stroke:white;stroke-width:2px;"/>
        </g>
        <g transform="matrix(-1,0,0,-1,1080,240)">
            <circle cx="821.5" cy="147.5" r="6.5" style="fill:white;stroke:white;stroke-width:2px;"/>
        </g>
        <g transform="matrix(-1,0,0,-1,1080,240)">
            <circle cx="837.5" cy="124.5" r="3.5" style="fill:white;stroke:white;stroke-width:2px;"/>
        </g>
        <g transform="matrix(-1,0,0,-1,1080,240)">
            <circle cx="955.5" cy="138.5" r="3.5" style="fill:white;stroke:white;stroke-width:2px;"/>
        </g>
        <g transform="matrix(-1,0,0,-1,1080,240)">
            <circle cx="985.5" cy="169.5" r="3.5" style="fill:white;stroke:white;stroke-width:2px;"/>
        </g>
        <g transform="matrix(-1,0,0,-1,1080,240)">
            <circle cx="518" cy="178" r="14" style="fill:white;stroke:white;stroke-width:2px;"/>
        </g>
        <g transform="matrix(-1,0,0,-1,1080,240)">
            <circle cx="497" cy="164" r="8" style="fill:white;stroke:white;stroke-width:2px;"/>
        </g>
        <g transform="matrix(-1,0,0,-1,1080,240)">
            <circle cx="487" cy="191" r="5" style="fill:white;stroke:white;stroke-width:2px;"/>
        </g>
        <g transform="matrix(-1,0,0,-1,1080,240)">
            <circle cx="648.5" cy="132.5" r="3.5" style="fill:white;stroke:white;stroke-width:2px;"/>
        </g>
        <g transform="matrix(-1,0,0,-1,1054,263)">
            <circle cx="254" cy="184" r="18" style="fill:white;stroke:white;stroke-width:2px;"/>
        </g>
        <g transform="matrix(-1,0,0,-1,1054,263)">
            <circle cx="290.5" cy="177.5" r="7.5" style="fill:white;stroke:white;stroke-width:2px;"/>
        </g>
        <g transform="matrix(-1,0,0,-1,1054,263)">
            <circle cx="275" cy="165" r="4" style="fill:white;stroke:white;stroke-width:2px;"/>
        </g>
        <g transform="matrix(-1,0,0,-1,1054,263)">
            <circle cx="226" cy="176" r="3" style="fill:white;stroke:white;stroke-width:2px;"/>
        </g>
        <g transform="matrix(-1,0,0,-1,1080,240)">
            <circle cx="747" cy="163" r="18" style="fill:white;stroke:white;stroke-width:2px;"/>
        </g>
        <g transform="matrix(-1,0,0,-1,1080,240)">
            <circle cx="720.5" cy="166.5" r="10.5" style="fill:white;stroke:white;stroke-width:2px;"/>
        </g>
        <g transform="matrix(-1,0,0,-1,1080,240)">
            <circle cx="728.5" cy="142.5" r="3.5" style="fill:white;stroke:white;stroke-width:2px;"/>
        </g>
        <g transform="matrix(-1,0,0,-1,1080,240)">
            <circle cx="757.5" cy="185.5" r="4.5" style="fill:white;stroke:white;stroke-width:2px;"/>
        </g>
        <g transform="matrix(-1,0,0,-1,1080,240)">
            <circle cx="787" cy="124" r="9" style="fill:white;stroke:white;stroke-width:2px;"/>
        </g>
    </g>
    <g transform="matrix(1,0,0,1,4087,0)">
        <g transform="matrix(-1,0,0,-1,1080,240)">
            <circle cx="214" cy="133" r="14" style="fill:white;"/>
        </g>
        <g transform="matrix(-1,0,0,-1,1080,240)">
            <circle cx="200.5" cy="114.5" r="3.5" style="fill:white;"/>
        </g>
        <g transform="matrix(-1,0,0,-1,1080,240)">
            <circle cx="365" cy="126" r="12" style="fill:white;"/>
        </g>
        <g transform="matrix(-1,0,0,-1,1080,240)">
            <circle cx="233.5" cy="151.5" r="3.5" style="fill:white;"/>
        </g>
        <g transform="matrix(-1,0,0,-1,1080,240)">
            <circle cx="381" cy="120" r="3" style="fill:white;"/>
        </g>
        <g transform="matrix(-1,0,0,-1,1080,240)">
            <circle cx="608" cy="130" r="7" style="fill:white;"/>
        </g>
        <g transform="matrix(-1,0,0,-1,1080,240)">
            <circle cx="386.5" cy="156.5" r="16.5" style="fill:white;"/>
        </g>
        <g transform="matrix(-1,0,0,-1,1080,240)">
            <circle cx="356.5" cy="145.5" r="6.5" style="fill:white;"/>
        </g>
        <g transform="matrix(-1,0,0,-1,1093,221)">
            <circle cx="478.5" cy="110.5" r="15.5" style="fill:white;"/>
        </g>
        <g transform="matrix(-1,0,0,-1,1093,221)">
            <circle cx="506" cy="99" r="6" style="fill:white;"/>
        </g>
        <g transform="matrix(-1,0,0,-1,1093,221)">
            <circle cx="454" cy="100" r="3" style="fill:white;"/>
        </g>
        <g transform="matrix(-1,0,0,-1,1080,240)">
            <circle cx="631" cy="159" r="25" style="fill:white;"/>
        </g>
        <g transform="matrix(-1,0,0,-1,1080,240)">
            <circle cx="673.5" cy="149.5" r="8.5" style="fill:white;"/>
        </g>
        <g transform="matrix(-1,0,0,-1,1080,240)">
            <circle cx="575.5" cy="135.5" r="4.5" style="fill:white;"/>
        </g>
        <g transform="matrix(-1,0,0,-1,1080,240)">
            <circle cx="877.5" cy="172.5" r="12.5" style="fill:white;"/>
        </g>
        <g transform="matrix(-1,0,0,-1,1080,240)">
            <circle cx="837" cy="145" r="13" style="fill:white;"/>
        </g>
        <g transform="matrix(-1,0,0,-1,1080,240)">
            <circle cx="864" cy="147" r="5" style="fill:white;"/>
        </g>
        <g transform="matrix(-1,0,0,-1,1080,240)">
            <circle cx="982.5" cy="144.5" r="19.5" style="fill:white;"/>
        </g>
        <g transform="matrix(-1,0,0,-1,1080,240)">
            <circle cx="1013.5" cy="119.5" r="7.5" style="fill:white;"/>
        </g>
        <g transform="matrix(-1,0,0,-1,1080,240)">
            <circle cx="988.5" cy="111.5" r="5.5" style="fill:white;"/>
        </g>
        <g transform="matrix(-1,0,0,-1,1080,240)">
            <circle cx="229.5" cy="118.5" r="3.5" style="fill:white;stroke:white;stroke-width:2px;"/>
        </g>
        <g transform="matrix(-1,0,0,-1,1080,240)">
            <circle cx="402.5" cy="145.5" r="8.5" style="fill:white;stroke:white;stroke-width:2px;"/>
        </g>
        <g transform="matrix(-1,0,0,-1,1093,221)">
            <circle cx="474" cy="91" r="3" style="fill:white;stroke:white;stroke-width:2px;"/>
        </g>
        <g transform="matrix(-1,0,0,-1,1080,240)">
            <circle cx="598.5" cy="162.5" r="9.5" style="fill:white;stroke:white;stroke-width:2px;"/>
        </g>
        <g transform="matrix(-1,0,0,-1,1080,240)">
            <circle cx="821.5" cy="147.5" r="6.5" style="fill:white;stroke:white;stroke-width:2px;"/>
        </g>
        <g transform="matrix(-1,0,0,-1,1080,240)">
            <circle cx="837.5" cy="124.5" r="3.5" style="fill:white;stroke:white;stroke-width:2px;"/>
        </g>
        <g transform="matrix(-1,0,0,-1,1080,240)">
            <circle cx="955.5" cy="138.5" r="3.5" style="fill:white;stroke:white;stroke-width:2px;"/>
        </g>
        <g transform="matrix(-1,0,0,-1,1080,240)">
            <circle cx="985.5" cy="169.5" r="3.5" style="fill:white;stroke:white;stroke-width:2px;"/>
        </g>
        <g transform="matrix(-1,0,0,-1,1080,240)">
            <circle cx="518" cy="178" r="14" style="fill:white;stroke:white;stroke-width:2px;"/>
        </g>
        <g transform="matrix(-1,0,0,-1,1080,240)">
            <circle cx="497" cy="164" r="8" style="fill:white;stroke:white;stroke-width:2px;"/>
        </g>
        <g transform="matrix(-1,0,0,-1,1080,240)">
            <circle cx="487" cy="191" r="5" style="fill:white;stroke:white;stroke-width:2px;"/>
        </g>
        <g transform="matrix(-1,0,0,-1,1080,240)">
            <circle cx="648.5" cy="132.5" r="3.5" style="fill:white;stroke:white;stroke-width:2px;"/>
        </g>
        <g transform="matrix(-1,0,0,-1,1054,263)">
            <circle cx="254" cy="184" r="18" style="fill:white;stroke:white;stroke-width:2px;"/>
        </g>
        <g transform="matrix(-1,0,0,-1,1054,263)">
            <circle cx="290.5" cy="177.5" r="7.5" style="fill:white;stroke:white;stroke-width:2px;"/>
        </g>
        <g transform="matrix(-1,0,0,-1,1054,263)">
            <circle cx="275" cy="165" r="4" style="fill:white;stroke:white;stroke-width:2px;"/>
        </g>
        <g transform="matrix(-1,0,0,-1,1054,263)">
            <circle cx="226" cy="176" r="3" style="fill:white;stroke:white;stroke-width:2px;"/>
        </g>
        <g transform="matrix(-1,0,0,-1,1080,240)">
            <circle cx="747" cy="163" r="18" style="fill:white;stroke:white;stroke-width:2px;"/>
        </g>
        <g transform="matrix(-1,0,0,-1,1080,240)">
            <circle cx="720.5" cy="166.5" r="10.5" style="fill:white;stroke:white;stroke-width:2px;"/>
        </g>
        <g transform="matrix(-1,0,0,-1,1080,240)">
            <circle cx="728.5" cy="142.5" r="3.5" style="fill:white;stroke:white;stroke-width:2px;"/>
        </g>
        <g transform="matrix(-1,0,0,-1,1080,240)">
            <circle cx="757.5" cy="185.5" r="4.5" style="fill:white;stroke:white;stroke-width:2px;"/>
        </g>
        <g transform="matrix(-1,0,0,-1,1080,240)">
            <circle cx="787" cy="124" r="9" style="fill:white;stroke:white;stroke-width:2px;"/>
        </g>
    </g>
</svg>
